<svg width="19" height="25" viewBox="0 0 19 25" fill="none" xmlns="http://www.w3.org/2000/svg">
<g clip-path="url(#clip0_212_20024)">
<path d="M17.532 13.69V3.75C17.532 2.09 16.2263 0.75 14.6089 0.75H8.24632C7.46684 0.75 6.71658 1.07 6.17094 1.64L1.85453 6.1C1.30889 6.66 1.00684 7.42 1.00684 8.21V20.29C1.00684 21.95 2.31248 23.29 3.92991 23.29H14.6089C16.2263 23.29 17.532 21.95 17.532 20.29V17.42" stroke="#FF3239" stroke-width="1.5" stroke-linecap="round" stroke-linejoin="round"/>
<path d="M7.4668 6.02002H14.0145" stroke="#FF3239" stroke-width="1.5" stroke-linecap="round" stroke-linejoin="round"/>
<path d="M4.33936 10.21H14.0147" stroke="#FF3239" stroke-width="1.5" stroke-linecap="round" stroke-linejoin="round"/>
<path d="M5.95414 18.9975C7.13801 18.9975 8.09773 18.0126 8.09773 16.7975C8.09773 15.5825 7.13801 14.5975 5.95414 14.5975C4.77026 14.5975 3.81055 15.5825 3.81055 16.7975C3.81055 18.0126 4.77026 18.9975 5.95414 18.9975Z" fill="#FF3239" stroke="#FF3239" stroke-linecap="round" stroke-linejoin="round"/>
<path d="M3.60593 15.9975L3.45977 15.8475C3.06028 15.4375 3.06028 14.7775 3.45977 14.3675L3.51823 14.3075C3.91772 13.8975 4.5608 13.8975 4.96028 14.3075L5.10644 14.4575" stroke="#FF3239" stroke-linecap="round" stroke-linejoin="round"/>
<path d="M8.30227 15.9975L8.44842 15.8475C8.84791 15.4375 8.84791 14.7775 8.44842 14.3675L8.38996 14.3075C7.99048 13.8975 7.3474 13.8975 6.94791 14.3075L6.80176 14.4575" stroke="#FF3239" stroke-linecap="round" stroke-linejoin="round"/>
<path d="M5.10667 17.1375C5.28963 17.1375 5.43795 16.9853 5.43795 16.7975C5.43795 16.6097 5.28963 16.4575 5.10667 16.4575C4.92371 16.4575 4.77539 16.6097 4.77539 16.7975C4.77539 16.9853 4.92371 17.1375 5.10667 17.1375Z" fill="white"/>
<path d="M6.80199 17.1375C6.98495 17.1375 7.13327 16.9853 7.13327 16.7975C7.13327 16.6097 6.98495 16.4575 6.80199 16.4575C6.61902 16.4575 6.4707 16.6097 6.4707 16.7975C6.4707 16.9853 6.61902 17.1375 6.80199 17.1375Z" fill="white"/>
<path d="M5.50586 17.6775C5.50586 17.6775 5.87612 18.1975 6.38278 17.6775" stroke="white" stroke-width="0.5" stroke-linecap="round" stroke-linejoin="round"/>
<path d="M14.2418 21.2599H7.54511C7.23331 21.2599 6.97998 21.0127 6.97998 20.6949C6.97998 20.3888 7.23331 20.1299 7.54511 20.1299H9.55229" stroke="#FF3239" stroke-miterlimit="10" stroke-linecap="round"/>
<path d="M6.36621 19H9.60108C9.8739 19 10.098 19.2472 10.098 19.565C10.098 19.871 9.8739 20.13 9.60108 20.13H7.71083" stroke="#FF3239" stroke-miterlimit="10" stroke-linecap="round"/>
</g>
<defs>
<clipPath id="clip0_212_20024">
<rect width="19" height="25" fill="white"/>
</clipPath>
</defs>
</svg>
