<svg width="24" height="24" viewBox="0 0 24 24" fill="none" xmlns="http://www.w3.org/2000/svg">
<g clip-path="url(#clip0_1_1610)">
<g clip-path="url(#clip1_1_1610)">
<path d="M9.20172 1H9.03693C7.07518 1 5.48486 2.59032 5.48486 4.55207V7.9302C5.48486 9.89195 7.07518 11.4823 9.03693 11.4823H9.20172C11.1635 11.4823 12.7538 9.89195 12.7538 7.9302V4.55207C12.7538 2.59032 11.1635 1 9.20172 1Z" stroke="#FF3239" stroke-width="1.5" stroke-miterlimit="10"/>
<path d="M12.7636 5.63237C11.61 5.63237 8.03967 6.11758 8.25023 4.10352C8.0946 5.60491 6.73968 5.63237 5.49463 5.63237" stroke="#FF3239" stroke-width="1.5" stroke-linecap="round" stroke-linejoin="round"/>
<path d="M8.3501 8.65344C8.3501 8.65344 9.07333 9.26682 9.7874 8.65344" stroke="#FF3239" stroke-width="1.5" stroke-linecap="round" stroke-linejoin="round"/>
<path d="M7.67301 22.0287H3.88291C2.28082 22.0287 0.97168 20.8202 0.97168 19.328V19.0625C0.97168 15.6844 3.91953 12.9379 7.554 12.9379V11.4915" stroke="#FF3239" stroke-width="1.5" stroke-linecap="round" stroke-linejoin="round"/>
<path d="M8.3501 18.9709V22.0287" stroke="#FF3239" stroke-width="1.5" stroke-linecap="round" stroke-linejoin="round"/>
<path d="M9.89747 13.4872C9.34818 13.6062 8.55171 13.5604 7.56299 12.9287" stroke="#FF3239" stroke-width="1.5" stroke-linecap="round" stroke-linejoin="round"/>
<path d="M10.7397 11.4823V12.5351" stroke="#FF3239" stroke-width="1.5" stroke-linecap="round" stroke-linejoin="round"/>
<path d="M12.9735 17.8632C12.9735 17.8632 11.1975 18.1378 11.1426 19.392C11.1426 19.392 11.9299 20.454 11.5454 21.461" fill="#FF3239"/>
<path d="M12.9735 17.8632C12.9735 17.8632 11.1975 18.1378 11.1426 19.392C11.1426 19.392 11.9299 20.454 11.5454 21.461" stroke="#FF3239" stroke-width="1.5" stroke-linecap="round" stroke-linejoin="round"/>
<path d="M11.8843 21.9645L14.9054 21.7723V18.2019L12.223 18.092" fill="#FF3239"/>
<path d="M11.8843 21.9645L14.9054 21.7723V18.2019L12.223 18.092" stroke="#FF3239" stroke-width="1.5" stroke-linecap="round" stroke-linejoin="round"/>
<path d="M11.1426 19.2913C11.1426 18.5681 11.582 17.9455 12.2228 17.6434L11.1426 19.2913Z" fill="#FF3239"/>
<path d="M11.1426 19.2913C11.1426 18.5681 11.582 17.9455 12.2228 17.6434" stroke="#FF3239" stroke-width="1.5" stroke-linecap="round" stroke-linejoin="round"/>
<path d="M16.9557 17.4969C17.8345 17.6709 18.4845 18.4033 18.4845 19.2913V21.1589C18.4845 21.6349 18.0817 22.0194 17.5873 22.0194H12.2409C11.8473 22.0194 11.5085 21.8272 11.3071 21.5342" fill="#FF3239"/>
<path d="M16.9557 17.4969C17.8345 17.6709 18.4845 18.4033 18.4845 19.2913V21.1589C18.4845 21.6349 18.0817 22.0194 17.5873 22.0194H12.2409C11.8473 22.0194 11.5085 21.8272 11.3071 21.5342" stroke="#FF3239" stroke-width="1.5" stroke-linecap="round" stroke-linejoin="round"/>
<path d="M14.7037 19.9322C15.2447 19.9322 15.6833 19.5141 15.6833 18.9984C15.6833 18.4826 15.2447 18.0646 14.7037 18.0646C14.1627 18.0646 13.7241 18.4826 13.7241 18.9984C13.7241 19.5141 14.1627 19.9322 14.7037 19.9322Z" fill="white" stroke="white" stroke-width="1.5" stroke-linecap="round" stroke-linejoin="round"/>
<path d="M12.6255 12.2329C12.6255 12.2329 9.70508 12.1322 9.70508 14.7688C9.70508 16.0596 10.5748 16.4716 11.6642 15.9132" fill="#FF3239"/>
<path d="M12.6255 12.2329C12.6255 12.2329 9.70508 12.1322 9.70508 14.7688C9.70508 16.0596 10.5748 16.4716 11.6642 15.9132" stroke="#FF3239" stroke-width="1.5" stroke-miterlimit="10"/>
<path d="M14.7036 16.0781V17.8633" stroke="#FF3239" stroke-width="1.5" stroke-miterlimit="10"/>
<path d="M16.1961 11.8119C15.3905 11.3542 14.0905 11.3633 13.3032 11.8119C12.0215 12.5443 11.6187 14.6225 11.756 15.9224C11.9116 17.4238 13.3123 18.0097 14.7496 18.0647C16.1869 18.0097 17.5876 17.4238 17.7432 15.9224C17.8806 14.6225 17.4778 12.5443 16.1961 11.8119Z" stroke="#FF3239" stroke-width="1.5" stroke-miterlimit="10"/>
<path d="M16.8276 12.2329C16.8276 12.2329 19.748 12.1322 19.748 14.7688C19.748 16.0596 18.8783 16.4716 17.7889 15.9132" fill="#FF3239"/>
<path d="M16.8276 12.2329C16.8276 12.2329 19.748 12.1322 19.748 14.7688C19.748 16.0596 18.8783 16.4716 17.7889 15.9132" stroke="#FF3239" stroke-width="1.5" stroke-miterlimit="10"/>
<path d="M15.0057 15.2266H14.4106C14.0263 15.2266 13.7148 15.5381 13.7148 15.9223C13.7148 16.3066 14.0263 16.6181 14.4106 16.6181H15.0057C15.3899 16.6181 15.7014 16.3066 15.7014 15.9223C15.7014 15.5381 15.3899 15.2266 15.0057 15.2266Z" fill="#FF3239"/>
<path d="M19.7207 3.15139C19.7207 3.15139 17.9081 2.09859 17.5144 3.62744C17.5144 3.62744 17.2031 5.49503 19.6933 6.84994C19.6933 6.84994 22.2017 5.43094 21.9636 3.71899C21.9636 3.71899 21.8721 1.86972 19.7207 3.14224V3.15139Z" fill="#FF3239"/>
<path d="M3.69043 18.9711H9.65937C10.4833 18.9711 11.1516 19.6302 11.1516 20.4541V20.5457C11.1516 21.3605 10.4833 22.0288 9.65937 22.0288H4.2031" stroke="#FF3239" stroke-width="1.5" stroke-linecap="round" stroke-linejoin="round"/>
<path d="M19.693 6.8499C19.3817 6.62103 17.4409 5.42175 17.4409 4.24993V4.0119C17.4409 3.3436 17.9902 2.80347 18.6677 2.80347H18.7134C19.1346 2.80347 19.5099 3.01403 19.7296 3.33445" stroke="#FF3239" stroke-width="1.5" stroke-linecap="round" stroke-linejoin="round"/>
<path d="M19.693 6.84997C19.3817 6.6211 17.4409 5.42182 17.4409 4.25" stroke="#FF3239" stroke-width="1.5" stroke-linecap="round" stroke-linejoin="round"/>
<path d="M19.748 6.8499C20.0593 6.62103 22.0001 5.42175 22.0001 4.24993V4.0119C22.0001 3.3436 21.4508 2.80347 20.7734 2.80347H20.7276C20.3065 2.80347 19.9311 3.01403 19.7114 3.33445" stroke="#FF3239" stroke-width="1.5" stroke-linecap="round" stroke-linejoin="round"/>
<path d="M19.7476 6.84997C20.0588 6.6211 21.9996 5.42182 21.9996 4.25" stroke="#FF3239" stroke-width="1.5" stroke-linecap="round" stroke-linejoin="round"/>
</g>
</g>
<defs>
<clipPath id="clip0_1_1610">
<rect width="24" height="24" fill="white"/>
</clipPath>
<clipPath id="clip1_1_1610">
<rect width="23" height="23" fill="white"/>
</clipPath>
</defs>
</svg>
