<svg width="24" height="24" viewBox="0 0 24 24" fill="none" xmlns="http://www.w3.org/2000/svg">
<g clip-path="url(#clip0_1_1614)">
<g clip-path="url(#clip1_1_1614)">
<g clip-path="url(#clip2_1_1614)">
<path d="M4.89982 17.32C6.30982 18.24 7.99983 18.77 9.80982 18.77C14.7698 18.77 18.7898 14.76 18.7898 9.80998C18.7898 4.85998 14.7598 0.849976 9.79982 0.849976C4.83982 0.849976 0.819824 4.85998 0.819824 9.80998C0.819824 11.75 1.26982 13.31 2.31982 14.77L1.28982 18.08L4.88982 17.31L4.89982 17.32Z" fill="#FF3239" stroke="#FF3239" stroke-width="1.5" stroke-linecap="round" stroke-linejoin="round"/>
<path d="M18.9299 8.56995C21.4699 9.83995 23.2099 12.4699 23.2099 15.4899C23.2099 17.1699 22.8199 18.5099 21.9099 19.7799L22.7999 22.6399L19.6899 21.9799C18.4699 22.7699 17.0099 23.2399 15.4499 23.2399C12.3399 23.2399 9.65992 21.4099 8.41992 18.7799" stroke="#FF3239" stroke-width="1.5" stroke-linecap="round" stroke-linejoin="round"/>
<circle cx="6" cy="10" r="1" fill="white"/>
<circle cx="10" cy="10" r="1" fill="white"/>
<circle cx="14" cy="10" r="1" fill="white"/>
</g>
</g>
</g>
<defs>
<clipPath id="clip0_1_1614">
<rect width="24" height="24" fill="white"/>
</clipPath>
<clipPath id="clip1_1_1614">
<rect width="24" height="24" fill="white"/>
</clipPath>
<clipPath id="clip2_1_1614">
<rect width="24" height="24" fill="white"/>
</clipPath>
</defs>
</svg>
