<svg width="28" height="35" viewBox="0 0 28 35" fill="none" xmlns="http://www.w3.org/2000/svg">
<g clip-path="url(#clip0_67_3359)">
<path d="M4.49876 1.72095C4.66219 1.41743 5.07628 0.726807 5.43322 0.726807H5.65911C5.92901 0.726807 6.20936 1.09118 6.22361 1.34775C6.24365 1.70854 6.43722 2.18219 6.56231 2.52065C6.70679 2.91161 6.74317 3.34549 6.87592 3.74373C7.14967 4.56499 7.47106 5.36262 7.74775 6.17734C8.04756 7.0601 8.27272 7.96592 8.53805 8.85557C8.6911 9.36872 8.92024 9.95927 8.98651 10.4895C9.06729 11.1357 9.3135 11.7405 9.4287 12.3805C9.56992 13.1651 9.64677 13.9308 9.72663 14.7295C9.80271 15.4903 9.96233 16.2559 10.0057 17.0157C10.0255 17.3618 10.1029 17.7372 10.1625 18.082C10.2392 18.5246 10.2284 18.9724 10.2911 19.4117C10.485 20.7686 10.3368 22.2357 10.288 23.6015C10.2571 24.4655 10.1517 25.2693 9.91793 26.1041C9.83776 26.3905 9.71516 26.6625 9.61373 26.9415C9.53584 27.1556 9.51653 27.4271 9.40989 27.6251C9.25673 27.9095 9.07792 28.1946 9.00219 28.5126C8.80454 29.3428 8.54631 30.1536 8.2558 30.9525C8.03086 31.5711 7.77716 32.3168 7.40906 32.8593C7.327 32.9802 7.21067 33.3426 7.07036 33.3987C6.936 33.4524 6.68951 33.1968 6.60621 33.1164C6.50699 33.0207 6.01846 32.5738 5.94136 32.7087C5.78733 32.9783 5.5598 33.4008 5.22633 33.4802C4.67008 33.6127 4.36046 33.7635 3.95308 33.3109C3.7761 33.1142 3.76955 32.6875 3.69592 32.439C3.62897 32.2131 3.73982 31.8757 3.73982 31.6331C3.73982 30.6894 3.81382 29.7549 3.79627 28.8074C3.77282 27.5409 2.97954 26.4392 2.83349 25.1978C2.75132 24.4994 2.52822 23.836 2.34112 23.1625C2.14382 22.4522 2.27213 21.7107 2.27213 20.9735C2.27213 20.1184 1.98123 19.4649 1.77662 18.6465C1.6296 18.0584 1.33719 17.5552 1.25917 16.931C1.19817 16.443 0.961158 15.6861 1.22781 15.2062C1.40816 14.8815 1.68592 14.6084 1.76408 14.2371C1.87779 13.697 1.954 13.1805 1.93343 12.6252C1.92668 12.4429 1.8604 12.2542 1.83307 12.0732C1.79725 11.8359 1.82751 11.6061 1.77662 11.3707C1.70029 11.0177 1.66921 10.6551 1.59473 10.3013C1.48137 9.76284 1.25603 9.1621 1.25603 8.60468C1.25603 7.78155 1.2837 7.16873 1.6794 6.45646C1.83842 6.17023 2.07624 5.97523 2.35053 5.78533C2.52106 5.66727 2.71286 5.66906 2.89307 5.56894C3.22583 5.38408 3.32346 4.59029 3.39799 4.25492C3.53291 3.64774 4.00401 3.11625 4.13497 2.52693C4.19638 2.25056 4.36461 1.97007 4.49876 1.72095Z" fill="#F7795B" stroke="black" stroke-linecap="round"/>
<mask id="mask0_67_3359" style="mask-type:alpha" maskUnits="userSpaceOnUse" x="0" y="0" width="11" height="35">
<path d="M4.49876 1.72095C4.66219 1.41743 5.07628 0.726807 5.43322 0.726807H5.65911C5.92901 0.726807 6.20936 1.09118 6.22361 1.34775C6.24365 1.70854 6.43722 2.18219 6.56231 2.52065C6.70679 2.91161 6.74317 3.34549 6.87592 3.74373C7.14967 4.56499 7.47106 5.36262 7.74775 6.17734C8.04756 7.0601 8.27272 7.96592 8.53805 8.85557C8.6911 9.36872 8.92024 9.95927 8.98651 10.4895C9.06729 11.1357 9.3135 11.7405 9.4287 12.3805C9.56992 13.1651 9.64677 13.9308 9.72663 14.7295C9.80271 15.4903 9.96233 16.2559 10.0057 17.0157C10.0255 17.3618 10.1029 17.7372 10.1625 18.082C10.2392 18.5246 10.2284 18.9724 10.2911 19.4117C10.485 20.7686 10.3368 22.2357 10.288 23.6015C10.2571 24.4655 10.1517 25.2693 9.91793 26.1041C9.83776 26.3905 9.71516 26.6625 9.61373 26.9415C9.53584 27.1556 9.51653 27.4271 9.40989 27.6251C9.25673 27.9095 9.07792 28.1946 9.00219 28.5126C8.80454 29.3428 8.54631 30.1536 8.2558 30.9525C8.03086 31.5711 7.77716 32.3168 7.40906 32.8593C7.327 32.9802 7.21067 33.3426 7.07036 33.3987C6.936 33.4524 6.68951 33.1968 6.60621 33.1164C6.50699 33.0207 6.01846 32.5738 5.94136 32.7087C5.78733 32.9783 5.5598 33.4008 5.22633 33.4802C4.67008 33.6127 4.36046 33.7635 3.95308 33.3109C3.7761 33.1142 3.76955 32.6875 3.69592 32.439C3.62897 32.2131 3.73982 31.8757 3.73982 31.6331C3.73982 30.6894 3.81382 29.7549 3.79627 28.8074C3.77282 27.5409 2.97954 26.4392 2.83349 25.1978C2.75132 24.4994 2.52822 23.836 2.34112 23.1625C2.14382 22.4522 2.27213 21.7107 2.27213 20.9735C2.27213 20.1184 1.98123 19.4649 1.77662 18.6465C1.6296 18.0584 1.33719 17.5552 1.25917 16.931C1.19817 16.443 0.961158 15.6861 1.22781 15.2062C1.40816 14.8815 1.68592 14.6084 1.76408 14.2371C1.87779 13.697 1.954 13.1805 1.93343 12.6252C1.92668 12.4429 1.8604 12.2542 1.83307 12.0732C1.79725 11.8359 1.82751 11.6061 1.77662 11.3707C1.70029 11.0177 1.66921 10.6551 1.59473 10.3013C1.48137 9.76284 1.25603 9.1621 1.25603 8.60468C1.25603 7.78155 1.2837 7.16873 1.6794 6.45646C1.83842 6.17023 2.07624 5.97523 2.35053 5.78533C2.52106 5.66727 2.71286 5.66906 2.89307 5.56894C3.22583 5.38408 3.32346 4.59029 3.39799 4.25492C3.53291 3.64774 4.00401 3.11625 4.13497 2.52693C4.19638 2.25056 4.36461 1.97007 4.49876 1.72095Z" fill="#F7795B" stroke="black" stroke-linecap="round"/>
</mask>
<g mask="url(#mask0_67_3359)">
<path d="M5.10647 4.87916C4.6349 4.05391 4.70629 3.12966 4.70629 2.12239L4.50621 1.9223C4.17651 1.26291 4.13949 -0.440077 4.52844 -1.17907C4.81034 -1.71469 5.15767 -2.07862 5.30656 -2.67418C5.41467 -3.10661 5.63217 -3.44603 6.06801 -3.58014C6.92757 -3.84462 7.19958 -3.60449 7.67427 -2.86871C8.61395 -1.41221 9.12424 0.0633163 9.55844 1.73332C10.0663 3.68648 10.4272 5.67187 10.8312 7.64705C11.0292 8.61473 11.2361 9.62255 11.5093 10.5706C11.708 11.2603 11.6378 12.0077 11.8094 12.7048C12.1608 14.1321 12.0889 15.6542 12.4153 17.0957C12.5731 17.7929 12.5992 18.4762 12.6654 19.1855C12.7796 20.4093 12.5746 21.696 12.4319 22.8982C12.2062 24.8007 11.7928 27.8582 11.4982 29.7568C11.3118 30.9583 11.3946 32.5886 10.1643 33.2361C9.05839 33.8182 8.15248 34.3366 6.91838 34.3366C6.45347 34.3366 6.06348 34.1135 6.21252 33.5919C6.36588 33.0551 6.70718 32.3654 6.70718 31.7855C6.70718 30.6966 6.97256 29.4114 7.28521 28.3562C7.62244 27.2181 8.14553 25.7162 8.20784 24.5323C8.2694 23.3627 8.30789 22.177 8.30789 20.9863C8.30789 19.746 8.00775 18.5166 8.00775 17.2846C8.00775 16.9572 7.96549 16.3336 7.8299 16.0285C7.67452 15.6789 7.82051 15.1132 7.72985 14.728C7.62706 14.2911 7.6573 13.7752 7.60202 13.3329C7.55906 12.9892 7.41951 12.6292 7.40749 12.3047C7.37829 11.5164 7.00731 10.7858 7.00731 9.96474C7.00731 9.18976 7.0226 8.47282 6.76276 7.73042C6.55883 7.14777 6.45119 6.67293 6.10691 6.14639C5.82084 5.70887 5.34576 5.29792 5.10647 4.87916Z" fill="#FC987C" stroke="white" stroke-opacity="0.5" stroke-width="0.6" stroke-linecap="round"/>
<path d="M2.57906 6.35204C2.54731 5.81231 2.57906 5.2243 2.57906 4.65128V4.15106C2.0355 5.56432 1.37073 6.92912 1.15621 8.43073C1.05778 9.1197 0.904627 9.79993 0.800496 10.4872C0.590788 11.8713 0.220598 13.2374 0.0557221 14.6224C-0.426996 18.6772 -0.647126 22.7926 -0.400035 26.8833C-0.282431 28.8303 -0.190758 31.0835 0.478131 32.9416C0.717131 33.6055 1.41483 35.1482 2.27893 35.1648C3.6147 35.1905 4.69957 34.7901 5.50258 33.7864C6.00018 33.1644 5.58039 31.8008 5.58039 31.063C5.58039 30.3902 5.56315 29.281 5.30249 28.6619C5.13744 28.2699 5.18021 27.4629 5.18021 27.039C5.18021 26.1098 4.8288 25.225 4.78003 24.2822C4.76564 24.0039 4.93908 23.2082 4.7578 22.9816C4.63053 22.8225 4.58591 22.2678 4.57995 22.059C4.53422 20.4587 3.64106 18.9796 3.5795 17.3791C3.5531 16.6927 3.27937 15.9606 3.27937 15.256C3.27937 14.6768 3.14544 14.0652 3.17933 13.4552C3.2363 12.4297 3.14867 11.5294 3.07928 10.4538C3.03464 9.76188 2.77915 9.03152 2.77915 8.35292C2.77915 7.71305 2.61797 7.01352 2.57906 6.35204Z" fill="#F59472" stroke="white" stroke-opacity="0.5" stroke-width="0.6" stroke-linecap="round"/>
<path d="M4.07666 3.93103C4.11046 4.24797 4.40152 4.64829 4.52585 4.93973C4.70383 5.35689 4.88896 5.76905 5.08485 6.17721C5.30353 6.63283 5.57531 7.1324 5.71373 7.62266C6.05655 8.83694 6.14296 9.93657 6.14296 11.2311C6.14296 13.3748 6.48235 14.805 6.48235 16.9402C6.48235 19.287 7.40072 22.2677 7.40072 24.6146C7.40072 25.6863 7.12043 26.2702 7.40072 27.3287C7.55091 27.8959 6.48235 31.1925 6.48235 29.8348C6.22849 30.7935 6.68199 31.6533 6.68199 32.5698" stroke="white" stroke-opacity="0.2" stroke-width="0.6" stroke-linecap="round"/>
<path d="M2.7998 3.93103C2.83361 4.24243 3.12466 4.63575 3.249 4.9221C3.42697 5.33197 3.6121 5.73692 3.808 6.13794C4.02668 6.5856 4.29845 7.07643 4.43687 7.55813C4.7797 8.75119 4.8661 9.83159 4.8661 11.1035C4.8661 13.2097 5.20549 14.6149 5.20549 16.7127C5.20549 19.0186 6.12386 21.9472 6.12386 24.253C6.12386 25.306 5.84358 25.8797 6.12386 26.9197C6.27405 27.477 6.31444 30.1354 6.31444 28.8015C6.06058 29.7434 6.12386 31.523 6.12386 32.4234" stroke="white" stroke-opacity="0.45" stroke-width="0.4" stroke-linecap="round"/>
</g>
<path d="M4.49876 1.72095C4.66219 1.41743 5.07628 0.726807 5.43322 0.726807H5.65911C5.92901 0.726807 6.20936 1.09118 6.22361 1.34775C6.24365 1.70854 6.43722 2.18219 6.56231 2.52065C6.70679 2.91161 6.74317 3.34549 6.87592 3.74373C7.14967 4.56499 7.47106 5.36262 7.74775 6.17734C8.04756 7.0601 8.27272 7.96592 8.53805 8.85557C8.6911 9.36872 8.92024 9.95927 8.98651 10.4895C9.06729 11.1357 9.3135 11.7405 9.4287 12.3805C9.56992 13.1651 9.64677 13.9308 9.72663 14.7295C9.80271 15.4903 9.96233 16.2559 10.0057 17.0157C10.0255 17.3618 10.1029 17.7372 10.1625 18.082C10.2392 18.5246 10.2284 18.9724 10.2911 19.4117C10.485 20.7686 10.3368 22.2357 10.288 23.6015C10.2571 24.4655 10.1517 25.2693 9.91793 26.1041C9.83776 26.3905 9.71516 26.6625 9.61373 26.9415C9.53584 27.1556 9.51653 27.4271 9.40989 27.6251C9.25673 27.9095 9.07792 28.1946 9.00219 28.5126C8.80454 29.3428 8.54631 30.1536 8.2558 30.9525C8.03086 31.5711 7.77716 32.3168 7.40906 32.8593C7.327 32.9802 7.21067 33.3426 7.07036 33.3987C6.936 33.4524 6.68951 33.1968 6.60621 33.1164C6.50699 33.0207 6.01846 32.5738 5.94136 32.7087C5.78733 32.9783 5.5598 33.4008 5.22633 33.4802C4.67008 33.6127 4.36046 33.7635 3.95308 33.3109C3.7761 33.1142 3.76955 32.6875 3.69592 32.439C3.62897 32.2131 3.73982 31.8757 3.73982 31.6331C3.73982 30.6894 3.81382 29.7549 3.79627 28.8074C3.77282 27.5409 2.97954 26.4392 2.83349 25.1978C2.75132 24.4994 2.52822 23.836 2.34112 23.1625C2.14382 22.4522 2.27213 21.7107 2.27213 20.9735C2.27213 20.1184 1.98123 19.4649 1.77662 18.6465C1.6296 18.0584 1.33719 17.5552 1.25917 16.931C1.19817 16.443 0.961158 15.6861 1.22781 15.2062C1.40816 14.8815 1.68592 14.6084 1.76408 14.2371C1.87779 13.697 1.954 13.1805 1.93343 12.6252C1.92668 12.4429 1.8604 12.2542 1.83307 12.0732C1.79725 11.8359 1.82751 11.6061 1.77662 11.3707C1.70029 11.0177 1.66921 10.6551 1.59473 10.3013C1.48137 9.76284 1.25603 9.1621 1.25603 8.60468C1.25603 7.78155 1.2837 7.16873 1.6794 6.45646C1.83842 6.17023 2.07624 5.97523 2.35053 5.78533C2.52106 5.66727 2.71286 5.66906 2.89307 5.56894C3.22583 5.38408 3.32346 4.59029 3.39799 4.25492C3.53291 3.64774 4.00401 3.11625 4.13497 2.52693C4.19638 2.25056 4.36461 1.97007 4.49876 1.72095Z" stroke="black" stroke-linecap="round"/>
<path d="M14.0287 5.49187C14.2423 6.13269 14.1569 6.66757 14.6185 7.18046L14.7975 7.91722C14.9974 8.47505 15.148 9.35878 15.3699 10.2461C15.7884 11.9202 16.4624 13.4725 17.1929 14.9763C17.5812 15.7758 18.1534 16.6463 18.3453 17.51C18.3991 17.752 18.6008 17.9615 18.6344 18.1967C18.7006 18.6596 18.8256 19.3013 19.0721 19.6985C19.1736 19.8619 19.35 20.2349 19.3612 20.4373C19.3826 20.8228 19.5714 21.2632 19.6865 21.6339C19.8706 22.2271 20.0187 22.8402 20.2286 23.4248C20.5469 24.3116 20.8596 25.2462 21.2404 26.1031C21.4933 26.672 22.0978 27.0675 22.3808 27.6651C22.6626 28.2599 22.7583 29.1479 22.7583 29.7973C22.7583 30.3053 22.8658 30.8643 22.9189 31.3753C22.9473 31.6484 23.2381 33.3059 23.3204 33.2144C23.6153 32.8868 23.7142 32.5235 23.8826 32.1102C23.9592 31.922 24.2232 31.2786 24.4608 31.2107C24.7368 31.1319 25.0133 30.79 25.288 30.6445C25.4591 30.5539 25.5997 30.3563 25.6654 30.1787C25.9103 29.5175 26.0338 29.026 25.9385 28.3116C25.8594 27.7187 25.6032 26.9793 25.3603 26.4363C25.2082 26.0965 25.1617 25.7275 24.9989 25.3923C24.8387 25.0626 24.7408 24.6415 24.6214 24.2921C24.3936 23.6255 24.0448 22.9939 23.8585 22.3165C23.6158 21.4338 23.1637 20.6434 22.7261 19.827C22.476 19.3602 22.2871 18.8672 21.9953 18.4296C21.9276 18.328 21.8975 18.2434 21.8909 18.1244C21.881 17.9461 21.6932 17.7811 21.6741 17.6185C21.6267 17.2157 21.2287 16.689 21.0597 16.3135C20.7706 15.671 20.5452 15.0095 20.3169 14.3499C19.9338 13.2432 19.3612 12.0268 19.3612 10.8244C19.3612 10.1133 19.3124 9.54887 19.1444 8.87688C18.9189 7.97508 18.3738 7.06962 18.0241 6.21465C17.7847 5.62949 17.6596 5.01994 17.6266 4.39164C17.599 3.86845 17.1014 3.44283 16.7994 3.05451C16.2605 2.36172 15.5164 1.96626 14.8439 1.42826C14.4806 1.13762 14.1963 0.660053 13.7396 1.08293C13.5728 1.23739 13.4312 1.15593 13.2899 1.02671C13.1135 0.865399 12.6562 0.65699 12.5346 0.749688C12.2341 0.978594 12.5843 1.32606 12.7438 1.64509C13.1304 2.41823 13.4241 3.2319 13.5951 4.08647C13.6904 4.56338 13.8753 5.03154 14.0287 5.49187Z" fill="#FECB58" stroke="black" stroke-linecap="round"/>
<mask id="mask1_67_3359" style="mask-type:alpha" maskUnits="userSpaceOnUse" x="12" y="0" width="14" height="34">
<path d="M14.0287 5.49187C14.2423 6.13269 14.1569 6.66757 14.6185 7.18046L14.7975 7.91722C14.9974 8.47505 15.148 9.35878 15.3699 10.2461C15.7884 11.9202 16.4624 13.4725 17.1929 14.9763C17.5812 15.7758 18.1534 16.6463 18.3453 17.51C18.3991 17.752 18.6008 17.9615 18.6344 18.1967C18.7006 18.6596 18.8256 19.3013 19.0721 19.6985C19.1736 19.8619 19.35 20.2349 19.3612 20.4373C19.3826 20.8228 19.5714 21.2632 19.6865 21.6339C19.8706 22.2271 20.0187 22.8402 20.2286 23.4248C20.5469 24.3116 20.8596 25.2462 21.2404 26.1031C21.4933 26.672 22.0978 27.0675 22.3808 27.6651C22.6626 28.2599 22.7583 29.1479 22.7583 29.7973C22.7583 30.3053 22.8658 30.8643 22.9189 31.3753C22.9473 31.6484 23.2381 33.3059 23.3204 33.2144C23.6153 32.8868 23.7142 32.5235 23.8826 32.1102C23.9592 31.922 24.2232 31.2786 24.4608 31.2107C24.7368 31.1319 25.0133 30.79 25.288 30.6445C25.4591 30.5539 25.5997 30.3563 25.6654 30.1787C25.9103 29.5175 26.0338 29.026 25.9385 28.3116C25.8594 27.7187 25.6032 26.9793 25.3603 26.4363C25.2082 26.0965 25.1617 25.7275 24.9989 25.3923C24.8387 25.0626 24.7408 24.6415 24.6214 24.2921C24.3936 23.6255 24.0448 22.9939 23.8585 22.3165C23.6158 21.4338 23.1637 20.6434 22.7261 19.827C22.476 19.3602 22.2871 18.8672 21.9953 18.4296C21.9276 18.328 21.8975 18.2434 21.8909 18.1244C21.881 17.9461 21.6932 17.7811 21.6741 17.6185C21.6267 17.2157 21.2287 16.689 21.0597 16.3135C20.7706 15.671 20.5452 15.0095 20.3169 14.3499C19.9338 13.2432 19.3612 12.0268 19.3612 10.8244C19.3612 10.1133 19.3124 9.54887 19.1444 8.87688C18.9189 7.97508 18.3738 7.06962 18.0241 6.21465C17.7847 5.62949 17.6596 5.01994 17.6266 4.39164C17.599 3.86845 17.1014 3.44283 16.7994 3.05451C16.2605 2.36172 15.5164 1.96626 14.8439 1.42826C14.4806 1.13762 14.1963 0.660053 13.7396 1.08293C13.5728 1.23739 13.4312 1.15593 13.2899 1.02671C13.1135 0.865399 12.6562 0.65699 12.5346 0.749688C12.2341 0.978594 12.5843 1.32606 12.7438 1.64509C13.1304 2.41823 13.4241 3.2319 13.5951 4.08647C13.6904 4.56338 13.8753 5.03154 14.0287 5.49187Z" fill="#D9D9D9"/>
</mask>
<g mask="url(#mask1_67_3359)">
<path d="M12.9574 1.19083C12.3077 0.684347 11.4309 -0.645467 11.396 -1.28442L11.1249 -1.82162C10.4399 -2.20089 10.0455 -2.27844 9.75329 -2.56079C9.58758 -2.7209 9.45006 -1.64029 9.34736 -1.40542C8.70927 0.0537966 10.2146 1.66062 10.6735 3.13659C10.9391 3.99119 11.2799 4.86106 11.5951 5.71805C11.8487 6.40748 12.1516 7.06985 12.5288 7.7403C12.9092 8.41633 13.0435 9.10386 13.3818 9.78434C14.0981 11.2253 14.4657 12.7874 14.9852 14.2582C15.9776 17.0681 16.955 19.8779 17.7963 22.7039C18.5939 25.3835 17.9708 28.0068 18.0455 30.671C18.0826 31.9913 18.4683 33.0712 19.0494 34.357C19.4092 35.1531 20.8874 35.8285 21.9787 36.0899C23.1249 36.3644 23.5497 36.3545 24.4321 35.8791C25.5877 35.2565 26.2537 33.91 26.3367 32.9239C26.3923 32.2626 26.5744 31.6234 26.7804 30.9833C27.228 29.5922 26.2977 28.2892 25.5248 26.956C25.1219 26.2609 24.5878 25.667 24.1568 24.9943C23.9001 24.5938 23.3918 24.2476 23.1592 23.8356C22.7482 23.1078 22.2715 22.3452 21.7677 21.6319C21.4649 21.2033 21.3508 20.6522 20.9699 20.2843C20.5538 19.8822 20.2876 19.075 20.0231 18.6268C19.6807 18.0465 19.4269 17.4471 19.1027 16.8629C18.7465 16.2212 18.569 15.5464 18.243 14.8983C17.849 14.1148 17.9444 13.3785 17.642 12.5668C17.2067 11.3985 17.1527 10.184 16.7141 9.01869C16.5073 8.46917 16.3387 7.85033 16.2017 7.30059C15.8517 5.8964 14.8074 4.51335 14.179 3.12298C13.8978 2.5007 13.6238 1.71023 12.9574 1.19083Z" fill="#FFE8C6"/>
<path d="M16.4597 7.47556C16.397 6.97445 15.7848 6.43753 15.5869 5.94824C15.2508 5.11728 15.0702 4.24274 14.7505 3.40675C14.5183 2.79941 14.3333 2.18745 14.1323 1.58447" stroke="#FE9C1B" stroke-opacity="0.5" stroke-width="1.8" stroke-linecap="round"/>
<path d="M23.1506 32.349C23.1506 31.6059 23.2104 30.7668 23.5466 30.0944C23.8081 29.5714 24.0234 28.9549 24.0234 28.3651C24.0234 27.5612 23.8052 26.6699 23.8052 25.8761" stroke="#EE5E24" stroke-opacity="0.4" stroke-width="2" stroke-linecap="round"/>
<path d="M18.5686 11.403C18.6705 11.433 18.726 15.429 18.7868 15.8584" stroke="#EE5E24" stroke-opacity="0.76" stroke-width="1.8" stroke-linecap="round"/>
<path d="M21.2597 21.0032C21.2205 20.6507 21.1543 20.2507 21.0415 19.9123" stroke="#EE5E24" stroke-width="2" stroke-linecap="round"/>
<path d="M25.187 30.4581C25.187 30.1385 25.2597 29.8322 25.2597 29.5126C25.2597 29.3343 25.4052 29.1969 25.4052 29.0035" stroke="#FAB737" stroke-opacity="0.8" stroke-width="2" stroke-linecap="round"/>
<path d="M25.2999 26.5464C25.0313 26.5166 24.7574 26.0834 24.5491 25.9167C24.3203 25.7337 24.1681 25.691 23.8467 25.7714" stroke="#E24237" stroke-opacity="0.89" stroke-width="2" stroke-linecap="round"/>
<path d="M17.753 6.73479C17.4302 6.69443 17.3703 5.77362 17.3032 5.53844C17.1798 5.10656 17.1301 4.73916 17.1301 4.24323" stroke="#CB4434" stroke-linecap="round"/>
</g>
<path d="M14.0287 5.49187C14.2423 6.13269 14.1569 6.66757 14.6185 7.18046L14.7975 7.91722C14.9974 8.47505 15.148 9.35878 15.3699 10.2461C15.7884 11.9202 16.4624 13.4725 17.1929 14.9763C17.5812 15.7758 18.1534 16.6463 18.3453 17.51C18.3991 17.752 18.6008 17.9615 18.6344 18.1967C18.7006 18.6596 18.8256 19.3013 19.0721 19.6985C19.1736 19.8619 19.35 20.2349 19.3612 20.4373C19.3826 20.8228 19.5714 21.2632 19.6865 21.6339C19.8706 22.2271 20.0187 22.8402 20.2286 23.4248C20.5469 24.3116 20.8596 25.2462 21.2404 26.1031C21.4933 26.672 22.0978 27.0675 22.3808 27.6651C22.6626 28.2599 22.7583 29.1479 22.7583 29.7973C22.7583 30.3053 22.8658 30.8643 22.9189 31.3753C22.9473 31.6484 23.2381 33.3059 23.3204 33.2144C23.6153 32.8868 23.7142 32.5235 23.8826 32.1102C23.9592 31.922 24.2232 31.2786 24.4608 31.2107C24.7368 31.1319 25.0133 30.79 25.288 30.6445C25.4591 30.5539 25.5997 30.3563 25.6654 30.1787C25.9103 29.5175 26.0338 29.026 25.9385 28.3116C25.8594 27.7187 25.6032 26.9793 25.3603 26.4363C25.2082 26.0965 25.1617 25.7275 24.9989 25.3923C24.8387 25.0626 24.7408 24.6415 24.6214 24.2921C24.3936 23.6255 24.0448 22.9939 23.8585 22.3165C23.6158 21.4338 23.1637 20.6434 22.7261 19.827C22.476 19.3602 22.2871 18.8672 21.9953 18.4296C21.9276 18.328 21.8975 18.2434 21.8909 18.1244C21.881 17.9461 21.6932 17.7811 21.6741 17.6185C21.6267 17.2157 21.2287 16.689 21.0597 16.3135C20.7706 15.671 20.5452 15.0095 20.3169 14.3499C19.9338 13.2432 19.3612 12.0268 19.3612 10.8244C19.3612 10.1133 19.3124 9.54887 19.1444 8.87688C18.9189 7.97508 18.3738 7.06962 18.0241 6.21465C17.7847 5.62949 17.6596 5.01994 17.6266 4.39164C17.599 3.86845 17.1014 3.44283 16.7994 3.05451C16.2605 2.36172 15.5164 1.96626 14.8439 1.42826C14.4806 1.13762 14.1963 0.660053 13.7396 1.08293C13.5728 1.23739 13.4312 1.15593 13.2899 1.02671C13.1135 0.865399 12.6562 0.65699 12.5346 0.749688C12.2341 0.978594 12.5843 1.32606 12.7438 1.64509C13.1304 2.41823 13.4241 3.2319 13.5951 4.08647C13.6904 4.56338 13.8753 5.03154 14.0287 5.49187Z" stroke="black" stroke-linecap="round"/>
<path d="M17.6002 7.04735C17.8807 6.72006 18.9325 6.34702 19.3118 6.68414L19.557 6.84758C19.557 7.73558 20.1789 8.40131 20.129 9.29925C20.1037 9.75504 19.6767 10.3933 19.4344 10.7703C19.0404 11.3832 18.7658 12.0138 18.431 12.6499C18.2251 13.0411 18.1562 13.4943 18.0043 13.912C17.8224 14.4121 17.4069 14.6617 17.187 15.1015C17.0687 15.3382 16.9524 15.6038 16.8147 15.8189C16.696 16.0044 16.4696 15.4818 16.4107 15.3966C16.1998 15.0921 15.9818 14.656 15.9612 14.2843C15.9444 13.9811 15.8636 13.7404 15.7342 13.4671C15.6603 13.3111 15.5138 13.1088 15.4754 12.9359C15.4354 12.7557 15.2739 12.6348 15.2212 12.4501C15.1826 12.3153 15.1431 12.137 15.0804 11.9961C14.8335 11.4406 15.1635 10.8004 15.43 10.3208C15.5931 10.0271 15.5319 9.48851 15.7342 9.23569C16.1011 8.77699 16.4573 8.31921 16.842 7.89181C17.0911 7.61501 17.3617 7.32557 17.6002 7.04735Z" fill="#FD8964" stroke="black" stroke-linecap="round"/>
<path d="M20.9009 13.7531C21.0226 13.5966 21.5768 13.2588 21.6174 13.5842L21.7635 13.7939C21.9458 14.1586 21.7635 14.5439 21.7635 14.938V14.9504C21.7635 15.3196 21.7635 15.8205 21.8861 16.1639C22.1562 16.92 22.2519 17.7359 22.1721 18.5338C22.0957 19.298 20.816 19.3239 20.2834 19.6144C19.7467 19.9071 19.5932 19.8743 19.271 20.4543C19.144 20.6829 18.687 21.9298 18.5764 21.9298C18.4365 21.9298 18.3471 21.3633 18.3267 21.2715C18.1679 20.5572 17.6921 19.8548 17.6774 19.1059C17.6586 18.1471 18.0447 17.2785 18.4106 16.455L18.4129 16.4499C18.7672 15.6528 19.7246 15.4779 20.2108 14.8382C20.4723 14.4942 20.6466 14.0801 20.9009 13.7531Z" fill="#FBAB7B" stroke="black" stroke-linecap="round"/>
<path d="M23.0303 20.3727C23.1946 20.2814 23.6349 20.237 23.6627 20.4591L23.7249 20.577C23.85 20.8272 23.8682 21.2012 23.9519 21.4941C24.0465 21.825 24.1526 22.091 24.297 22.4157C24.5885 23.0716 25.3895 24.0329 24.7873 24.7857C24.6571 24.9485 24.1198 24.9481 23.9247 25.0354C23.7162 25.1287 23.5157 25.2242 23.3163 25.335C22.9916 25.5154 22.6912 26.0676 22.5354 26.3793C22.2278 26.9944 21.4884 27.7655 20.8192 27.1919C20.6567 27.0527 20.421 26.6594 20.3107 26.461C20.0786 26.0432 19.966 25.837 19.8885 25.3078C19.7917 24.6466 19.6827 24.1521 19.4935 23.5371C19.3998 23.2325 19.288 22.8668 19.5117 22.5792C19.7356 22.2912 20.1762 22.2896 20.4742 22.0661C20.7539 21.8563 21.2977 22.0102 21.5956 21.762C21.8149 21.5792 21.9783 21.4361 22.1722 21.2308C22.4646 20.9211 22.6538 20.5818 23.0303 20.3727Z" fill="#FE673F" stroke="black" stroke-linecap="round"/>
<path d="M19.4413 7.25734C19.2623 7.23496 19.124 7.11188 18.8999 7.11188C18.7308 7.11188 18.5326 7.2296 18.4231 7.36643C18.2155 7.62601 17.846 7.74848 17.6312 8.01696C17.2204 8.53047 16.9634 9.15345 16.4958 9.62105C16.0299 10.0869 16.3038 11.1639 15.5867 11.4029" stroke="white" stroke-opacity="0.5" stroke-width="1.4" stroke-linecap="round"/>
<path d="M21.7771 17.3068C21.7431 17.5793 21.3667 18.0429 21.1064 18.123C20.7806 18.2233 20.491 18.3978 20.1407 18.3978C19.9567 18.3978 19.8201 18.4572 19.7407 18.616" stroke="white" stroke-opacity="0.5" stroke-width="1.4" stroke-linecap="round"/>
<path d="M19.4958 19.2578C19.2481 19.4931 18.9928 19.6078 18.8574 19.9123C18.7842 20.077 18.8527 20.4157 18.6958 20.4942" stroke="white" stroke-opacity="0.5" stroke-width="1.4" stroke-linecap="round"/>
<path d="M21.0583 26.5518C21.2084 26.5331 21.3114 26.2403 21.3937 26.1437C21.6865 25.8 21.999 25.4499 22.2543 25.0811C22.5359 24.6744 23.2421 24.4931 23.6605 24.3214C23.9243 24.2132 24.2044 24.2295 24.4766 24.1517" stroke="white" stroke-opacity="0.5" stroke-linecap="round"/>
<path d="M23.6969 21.2699C23.4017 21.0552 22.8868 21.224 22.6423 21.4154C22.4578 21.5597 22.2289 21.7639 22.1695 22.0012C22.1411 22.1151 22.0843 22.2835 21.9877 22.3608C21.47 22.775 20.8804 22.702 20.2786 22.9427" stroke="white" stroke-opacity="0.8" stroke-linecap="round"/>
<path d="M21.3689 14.5225C20.6073 14.6113 20.3599 15.5722 19.8052 15.8767C18.9966 16.3205 18.6507 16.9345 18.2415 17.6982" stroke="white" stroke-opacity="0.5" stroke-width="0.9" stroke-linecap="round"/>
<path d="M19.0957 16.3275C19.5783 16.3275 19.9089 16.2052 20.3679 16.0872C20.6028 16.0268 21.3857 16.0137 21.3857 15.6914" stroke="#E24237" stroke-opacity="0.93" stroke-width="1.2" stroke-linecap="round"/>
<path d="M21.9147 17.727C21.7635 17.7102 21.7492 17.6648 21.5967 17.7411C21.3808 17.8491 22.1666 18.0222 21.0907 18.3743C20.0148 18.7264 19.7521 19.3173 20.185 19.5337" stroke="#E24237" stroke-opacity="0.7" stroke-linecap="round"/>
<path d="M16.2332 13.7195C16.5075 13.6447 16.8762 13.2901 17.0813 13.0975C17.1227 13.0587 17.4959 12.694 17.5054 12.7653C17.5596 13.1723 17.2754 13.4549 17.0248 13.7195C16.7411 14.0189 16.7076 14.5345 16.4876 14.8645" stroke="#E24237" stroke-opacity="0.96" stroke-width="1.2" stroke-linecap="round"/>
<path d="M19.9863 24.0245C20.0268 23.8222 20.3987 23.6088 20.5942 23.5827C21.08 23.518 21.5927 23.8635 22.1102 23.8301C22.6005 23.7985 23.1532 23.4089 23.4213 23.0067" stroke="#E24237" stroke-width="1.2" stroke-linecap="round"/>
<path d="M23.2939 24.1517C23.3011 24.0944 23.9232 24.1105 24.0573 24.0881" stroke="#E24237" stroke-width="1.2" stroke-linecap="round"/>
<path d="M19.6918 9.25085C19.6018 9.26212 19.4422 9.59011 19.372 9.67375C19.2435 9.82669 19.179 10.0017 19.0955 10.178C19.0255 10.3257 18.949 10.4347 18.9138 10.5927C18.8556 10.8548 18.815 11.1021 18.6915 11.3491C18.6019 11.5284 18.5208 11.6857 18.5208 11.8858" stroke="white" stroke-opacity="0.67" stroke-width="0.7" stroke-linecap="round"/>
<path d="M18.5697 21.157C18.5208 20.7657 18.5436 20.6951 18.8381 20.4006C19.0275 20.2112 19.2605 20.1029 19.4751 19.9479C19.6026 19.8558 19.6832 19.7326 19.8411 19.6931C20.051 19.6406 20.2457 19.5131 20.4537 19.4491C20.6639 19.3845 20.8602 19.3482 21.0583 19.2648C21.4141 19.1149 21.5851 18.7809 21.7902 18.4732" stroke="white" stroke-opacity="0.89" stroke-width="0.7" stroke-linecap="round"/>
<path d="M21.0583 27.11C21.2102 27.091 21.5248 26.6705 21.6059 26.5245C21.7166 26.3252 21.9566 26.2331 22.0722 26.0365C22.118 25.9586 22.2419 25.879 22.327 25.8522C22.4734 25.8062 22.5479 25.6772 22.6903 25.6353C22.9688 25.5534 22.9126 25.4097 22.9126 25.1582" stroke="white" stroke-opacity="0.89" stroke-width="0.7" stroke-linecap="round"/>
<path d="M19.1064 7.25019C18.9889 7.23549 18.8976 7.12006 18.7649 7.10109C18.5566 7.07134 18.4931 7.07353 18.2959 7.17971C18.0506 7.3118 17.8148 7.43442 17.5829 7.59176C17.4337 7.69302 17.3404 7.88567 17.2034 7.97128C17.0797 8.04858 17.0433 8.2886 16.9323 8.3996C16.7426 8.5893 16.591 8.78573 16.4986 9.03665C16.4111 9.27412 16.3304 9.47865 16.1895 9.68997C16.0513 9.89735 15.79 10.0821 15.6907 10.3053C15.6234 10.4569 15.5471 10.5913 15.3979 10.6659" stroke="white" stroke-opacity="0.89" stroke-width="0.7" stroke-linecap="round"/>
<path d="M23.5468 21.3522C23.3186 21.3522 23.0973 21.4432 22.8745 21.4877C22.5921 21.5442 22.6385 21.8926 22.3757 22.0353C22.0277 22.2242 21.7247 22.478 21.4377 22.7076C21.2061 22.8929 20.7707 22.8626 20.5106 23.0112C20.3177 23.1214 19.963 23.2107 19.7407 23.2552" stroke="white" stroke-width="0.4" stroke-linecap="round"/>
<path d="M17.6002 7.04735C17.8807 6.72006 18.9325 6.34702 19.3118 6.68414L19.557 6.84758C19.557 7.73558 20.1789 8.40131 20.129 9.29925C20.1037 9.75504 19.6767 10.3933 19.4344 10.7703C19.0404 11.3832 18.7658 12.0138 18.431 12.6499C18.2251 13.0411 18.1562 13.4943 18.0043 13.912C17.8224 14.4121 17.4069 14.6617 17.187 15.1015C17.0687 15.3382 16.9524 15.6038 16.8147 15.8189C16.696 16.0044 16.4696 15.4818 16.4107 15.3966C16.1998 15.0921 15.9818 14.656 15.9612 14.2843C15.9444 13.9811 15.8636 13.7404 15.7342 13.4671C15.6603 13.3111 15.5138 13.1088 15.4754 12.9359C15.4354 12.7557 15.2739 12.6348 15.2212 12.4501C15.1826 12.3153 15.1431 12.137 15.0804 11.9961C14.8335 11.4406 15.1635 10.8004 15.43 10.3208C15.5931 10.0271 15.5319 9.48851 15.7342 9.23569C16.1011 8.77699 16.4573 8.31921 16.842 7.89181C17.0911 7.61501 17.3617 7.32557 17.6002 7.04735Z" stroke="black" stroke-linecap="round"/>
<path d="M20.9009 13.7531C21.0226 13.5966 21.5768 13.2588 21.6174 13.5842L21.7635 13.7939C21.9458 14.1586 21.7635 14.5439 21.7635 14.938V14.9504C21.7635 15.3196 21.7635 15.8205 21.8861 16.1639C22.1562 16.92 22.2519 17.7359 22.1721 18.5338C22.0957 19.298 20.816 19.3239 20.2834 19.6144C19.7467 19.9071 19.5932 19.8743 19.271 20.4543C19.144 20.6829 18.687 21.9298 18.5764 21.9298C18.4365 21.9298 18.3471 21.3633 18.3267 21.2715C18.1679 20.5572 17.6921 19.8548 17.6774 19.1059C17.6586 18.1471 18.0447 17.2785 18.4106 16.455L18.4129 16.4499C18.7672 15.6528 19.7246 15.4779 20.2108 14.8382C20.4723 14.4942 20.6466 14.0801 20.9009 13.7531Z" stroke="black" stroke-linecap="round"/>
<path d="M23.0303 20.3727C23.1946 20.2814 23.6349 20.237 23.6627 20.4591L23.7249 20.577C23.85 20.8272 23.8682 21.2012 23.9519 21.4941C24.0465 21.825 24.1526 22.091 24.297 22.4157C24.5885 23.0716 25.3895 24.0329 24.7873 24.7857C24.6571 24.9485 24.1198 24.9481 23.9247 25.0354C23.7162 25.1287 23.5157 25.2242 23.3163 25.335C22.9916 25.5154 22.6912 26.0676 22.5354 26.3793C22.2278 26.9944 21.4884 27.7655 20.8192 27.1919C20.6567 27.0527 20.421 26.6594 20.3107 26.461C20.0786 26.0432 19.966 25.837 19.8885 25.3078C19.7917 24.6466 19.6827 24.1521 19.4935 23.5371C19.3998 23.2325 19.288 22.8668 19.5117 22.5792C19.7356 22.2912 20.1762 22.2896 20.4742 22.0661C20.7539 21.8563 21.2977 22.0102 21.5956 21.762C21.8149 21.5792 21.9783 21.4361 22.1722 21.2308C22.4646 20.9211 22.6538 20.5818 23.0303 20.3727Z" stroke="black" stroke-linecap="round"/>
</g>
<defs>
<clipPath id="clip0_67_3359">
<rect width="27" height="35" fill="white" transform="translate(0.416748)"/>
</clipPath>
</defs>
</svg>
