<svg width="37" height="34" viewBox="0 0 37 34" fill="none" xmlns="http://www.w3.org/2000/svg">
<g clip-path="url(#clip0_67_3363)">
<path d="M36.4168 0.794617H19.8819L17.9924 4.09326V21.6086H33.9764L36.4168 18.4829V0.794617Z" fill="#FFA957" stroke="black" stroke-linecap="round"/>
<path d="M18.2034 4.14965H34.0965M34.0965 4.14965L36.0528 0.946472M34.0965 4.14965V21.0332" stroke="black" stroke-linecap="round"/>
<path d="M19.6054 8.10424H20.5444C20.7544 8.10424 20.9344 8.14124 21.0844 8.21524C21.2364 8.28924 21.3524 8.39324 21.4324 8.52724C21.5124 8.66124 21.5524 8.81824 21.5524 8.99824C21.5524 9.18024 21.5124 9.33924 21.4324 9.47524C21.3524 9.60924 21.2364 9.71324 21.0844 9.78724C20.9344 9.86124 20.7544 9.89824 20.5444 9.89824H20.1514V10.5492H19.6054V8.10424ZM20.5204 9.41524C20.6744 9.41524 20.7934 9.37924 20.8774 9.30724C20.9634 9.23524 21.0064 9.13224 21.0064 8.99824C21.0064 8.86424 20.9634 8.76224 20.8774 8.69224C20.7934 8.62224 20.6744 8.58724 20.5204 8.58724H20.1514V9.41524H20.5204ZM23.0586 10.6092C22.8086 10.6092 22.5826 10.5532 22.3806 10.4412C22.1806 10.3312 22.0236 10.1792 21.9096 9.98524C21.7956 9.78924 21.7386 9.56924 21.7386 9.32524C21.7386 9.08124 21.7956 8.86224 21.9096 8.66824C22.0236 8.47224 22.1806 8.31924 22.3806 8.20924C22.5826 8.09724 22.8086 8.04124 23.0586 8.04124C23.3086 8.04124 23.5336 8.09724 23.7336 8.20924C23.9356 8.31924 24.0936 8.47224 24.2076 8.66824C24.3216 8.86224 24.3786 9.08124 24.3786 9.32524C24.3786 9.56924 24.3216 9.78924 24.2076 9.98524C24.0936 10.1792 23.9356 10.3312 23.7336 10.4412C23.5336 10.5532 23.3086 10.6092 23.0586 10.6092ZM23.0586 10.1172C23.2046 10.1172 23.3366 10.0832 23.4546 10.0152C23.5726 9.94724 23.6646 9.85324 23.7306 9.73324C23.7986 9.61124 23.8326 9.47524 23.8326 9.32524C23.8326 9.17324 23.7986 9.03724 23.7306 8.91724C23.6646 8.79724 23.5726 8.70324 23.4546 8.63524C23.3366 8.56724 23.2046 8.53324 23.0586 8.53324C22.9126 8.53324 22.7806 8.56724 22.6626 8.63524C22.5446 8.70324 22.4516 8.79724 22.3836 8.91724C22.3176 9.03724 22.2846 9.17324 22.2846 9.32524C22.2846 9.47524 22.3176 9.61124 22.3836 9.73324C22.4516 9.85324 22.5446 9.94724 22.6626 10.0152C22.7806 10.0832 22.9126 10.1172 23.0586 10.1172ZM27.8487 8.10424L27.1437 10.5492H26.5917L26.1537 9.01624L25.7157 10.5492H25.1637L24.4587 8.10424H25.0437L25.4637 9.70324L25.8837 8.10424H26.4507L26.8677 9.69724L27.2907 8.10424H27.8487ZM28.1074 8.10424H29.9254V8.57824H28.6534V9.07624H29.8204V9.55024H28.6534V10.0752H29.9524V10.5492H28.1074V8.10424ZM31.7743 10.5492L31.3003 9.77824H30.8653V10.5492H30.3193V8.10424H31.3033C31.5073 8.10424 31.6833 8.13924 31.8313 8.20924C31.9793 8.27724 32.0923 8.37424 32.1703 8.50024C32.2483 8.62624 32.2873 8.77324 32.2873 8.94124C32.2873 9.10924 32.2483 9.25624 32.1703 9.38224C32.0943 9.50624 31.9843 9.60224 31.8403 9.67024L32.4073 10.5492H31.7743ZM30.8653 9.29524H31.2793C31.4253 9.29524 31.5383 9.26524 31.6183 9.20524C31.7003 9.14324 31.7413 9.05524 31.7413 8.94124C31.7413 8.82724 31.7003 8.74024 31.6183 8.68024C31.5383 8.61824 31.4253 8.58724 31.2793 8.58724H30.8653V9.29524Z" fill="#090909"/>
<path d="M29.024 14.5967L28.5673 12.1488C28.5561 12.0892 28.5329 12.0324 28.499 11.982C28.4651 11.9317 28.4212 11.8888 28.3701 11.856C28.319 11.8233 28.2618 11.8013 28.2019 11.7915C28.142 11.7816 28.0807 11.7842 28.0218 11.7989L28.0132 11.8014L26.5523 12.2323H25.281L23.8201 11.8028L23.8115 11.8003C23.7526 11.7855 23.6913 11.783 23.6314 11.7928C23.5715 11.8027 23.5143 11.8247 23.4632 11.8574C23.4121 11.8902 23.3682 11.9331 23.3343 11.9834C23.3004 12.0338 23.2772 12.0905 23.266 12.1502L22.8092 14.5967C22.7897 14.6947 22.8042 14.7964 22.8503 14.885C22.8965 14.9736 22.9715 15.0438 23.0629 15.084C23.1215 15.1109 23.1851 15.1249 23.2496 15.1252C23.3267 15.1251 23.4024 15.1044 23.4688 15.0651V16.2379C23.4688 16.533 23.586 16.816 23.7947 17.0246C24.0033 17.2333 24.2863 17.3505 24.5814 17.3505H27.2518C27.5469 17.3505 27.83 17.2333 28.0386 17.0246C28.2473 16.816 28.3645 16.533 28.3645 16.2379V15.0654C28.4308 15.1046 28.5064 15.1254 28.5834 15.1255C28.6479 15.1253 28.7117 15.1114 28.7704 15.0846C28.8619 15.0444 28.937 14.9741 28.9831 14.8853C29.0293 14.7966 29.0437 14.6947 29.024 14.5967ZM23.2462 14.6801L23.7033 12.2323L24.8735 12.5764L23.2462 14.6801ZM27.2518 16.9055H26.1392V16.5525L26.5192 16.1728C26.5609 16.131 26.5844 16.0744 26.5844 16.0153C26.5844 15.9563 26.5609 15.8997 26.5192 15.8579C26.4774 15.8161 26.4208 15.7927 26.3617 15.7927C26.3027 15.7927 26.246 15.8161 26.2043 15.8579L25.9166 16.1458L25.629 15.8579C25.5873 15.8161 25.5306 15.7927 25.4716 15.7927C25.4125 15.7927 25.3559 15.8161 25.3141 15.8579C25.2724 15.8997 25.2489 15.9563 25.2489 16.0153C25.2489 16.0744 25.2724 16.131 25.3141 16.1728L25.6941 16.5525V16.9055H24.5814C24.4044 16.9055 24.2346 16.8351 24.1094 16.7099C23.9842 16.5847 23.9138 16.4149 23.9138 16.2379V14.5441L25.3581 12.6773H26.4749L27.9194 14.5441V16.2379C27.9194 16.4149 27.8491 16.5847 27.7239 16.7099C27.5987 16.8351 27.4289 16.9055 27.2518 16.9055ZM28.587 14.6801L26.9598 12.5764L28.13 12.2323L28.587 14.6801ZM25.249 15.0139C25.249 15.08 25.2295 15.1445 25.1928 15.1994C25.1561 15.2543 25.104 15.2971 25.043 15.3223C24.982 15.3476 24.9149 15.3542 24.8501 15.3413C24.7854 15.3284 24.7259 15.2967 24.6792 15.25C24.6325 15.2033 24.6007 15.1438 24.5879 15.0791C24.575 15.0143 24.5816 14.9472 24.6069 14.8862C24.6321 14.8252 24.6749 14.7731 24.7298 14.7364C24.7847 14.6997 24.8492 14.6801 24.9152 14.6801C25.0038 14.6801 25.0887 14.7153 25.1513 14.7779C25.2139 14.8405 25.249 14.9254 25.249 15.0139ZM27.2518 15.0139C27.2518 15.08 27.2323 15.1445 27.1956 15.1994C27.1589 15.2543 27.1068 15.2971 27.0458 15.3223C26.9848 15.3476 26.9177 15.3542 26.8529 15.3413C26.7882 15.3284 26.7287 15.2967 26.682 15.25C26.6353 15.2033 26.6035 15.1438 26.5907 15.0791C26.5778 15.0143 26.5844 14.9472 26.6097 14.8862C26.6349 14.8252 26.6777 14.7731 26.7326 14.7364C26.7875 14.6997 26.852 14.6801 26.918 14.6801C27.0066 14.6801 27.0915 14.7153 27.1541 14.7779C27.2167 14.8405 27.2518 14.9254 27.2518 15.0139Z" fill="black"/>
<path d="M7.00098 28.1721V31.1123H27.2146V28.1721C27.2146 28.1721 26.6036 25.6511 25.6407 25.2319C24.6778 24.8128 9.05909 24.9379 8.47106 25.2319C7.88303 25.526 7.24599 27.3146 7.00098 28.1721Z" fill="#FFD56A" stroke="black"/>
<path d="M10.547 22.8563C9.60066 23.2546 9.25229 24.5336 9.37209 25.1252C15.0661 24.9679 18.2654 24.9969 24.671 25.1252C25.3203 24.4262 24.232 22.8563 23.1047 22.8563C23.9809 21.4185 22.2274 19.9222 21.0155 20.5199C20.9257 18.6553 19.2595 18.4123 18.2973 19.509C17.5672 17.7354 15.875 18.3081 15.3095 19.509C13.8717 18.5205 12.3082 19.509 12.6361 20.7895C11.0411 20.2054 10.1474 21.9269 10.547 22.8563Z" fill="#C07946" stroke="black" stroke-linejoin="round"/>
<circle cx="13.6408" cy="21.9182" r="0.413281" fill="black"/>
<circle cx="16.6945" cy="22.7448" r="0.413281" fill="black"/>
<circle cx="19.0664" cy="20.9277" r="0.413281" fill="black"/>
<circle cx="21.3388" cy="22.7448" r="0.413281" fill="black"/>
<path d="M13.969 28.0373C14.0464 28.1071 14.1338 28.1661 14.2277 28.2124C14.0475 28.3468 13.9331 28.5471 13.9331 28.7704C13.9331 29.1755 14.308 29.5035 14.7709 29.5035C15.1175 29.5035 15.416 29.3193 15.5427 29.0563M13.969 28.0373C13.7667 28.2197 13.6331 28.4757 13.6331 28.7704C13.6331 29.3775 14.1812 29.8035 14.7709 29.8035C15.2191 29.8035 15.6305 29.5651 15.8129 29.1868M13.969 28.0373C13.7667 27.855 13.6331 27.599 13.6331 27.3043C13.6331 26.6972 14.1812 26.2712 14.7709 26.2712C15.2193 26.2712 15.6307 26.5097 15.813 26.8881L15.5427 27.0183L15.8128 26.8877C15.8317 26.9268 15.8582 26.9597 15.8847 26.9803C15.9094 26.9994 15.9285 27.0043 15.9438 27.0043H17.9546C17.9699 27.0043 17.989 26.9994 18.0137 26.9803C18.0402 26.9597 18.0667 26.9269 18.0856 26.8878M13.969 28.0373C14.0464 27.9676 14.1338 27.9086 14.2277 27.8623L18.0856 26.8878M15.8129 29.1868C15.8128 29.1869 15.8128 29.1869 15.8128 29.187L15.5427 29.0563M15.8129 29.1868C15.8129 29.1867 15.8129 29.1866 15.813 29.1866L15.5427 29.0563M15.8129 29.1868C15.8318 29.1478 15.8582 29.115 15.8847 29.0944C15.9094 29.0753 15.9285 29.0704 15.9438 29.0704H17.9546C17.9699 29.0704 17.989 29.0753 18.0137 29.0944C18.0402 29.115 18.0667 29.1479 18.0856 29.187L18.3557 29.0563M15.5427 29.0563C15.615 28.907 15.7585 28.7704 15.9438 28.7704H17.9546C18.1399 28.7704 18.2834 28.907 18.3557 29.0563M18.3557 29.0563L18.0854 29.1866C18.2678 29.565 18.6791 29.8035 19.1275 29.8035C19.7172 29.8035 20.2653 29.3775 20.2653 28.7704C20.2653 28.4757 20.1317 28.2197 19.9294 28.0373C20.1317 27.855 20.2653 27.599 20.2653 27.3043C20.2653 26.6972 19.7172 26.2712 19.1275 26.2712C18.6793 26.2712 18.268 26.5096 18.0856 26.8878M18.3557 29.0563L18.0856 26.8878M14.263 27.8872C14.2976 27.9103 14.3344 27.9311 14.3729 27.9494C14.4106 27.9668 14.4358 27.9998 14.4358 28.0373C14.4358 28.0749 14.4106 28.1079 14.3729 28.1253C14.3344 28.1435 14.2976 28.1643 14.263 28.1875C14.2617 28.1883 14.2605 28.1891 14.2592 28.19C14.2489 28.197 14.2387 28.2042 14.2287 28.2116C14.1878 28.1856 14.1358 28.1292 14.1358 28.0373C14.1358 27.9455 14.1878 27.8891 14.2287 27.8631C14.2387 27.8705 14.2489 27.8777 14.2592 27.8847C14.2605 27.8855 14.2617 27.8864 14.263 27.8872ZM19.6697 28.2116C19.6597 28.2042 19.6495 28.197 19.6392 28.19C19.6379 28.1891 19.6367 28.1883 19.6354 28.1875C19.6008 28.1643 19.5641 28.1435 19.5255 28.1253C19.4878 28.1079 19.4626 28.0749 19.4626 28.0373C19.4626 27.9998 19.4878 27.9668 19.5255 27.9494C19.5641 27.9311 19.6008 27.9103 19.6354 27.8872C19.6367 27.8864 19.6379 27.8855 19.6392 27.8847C19.6495 27.8777 19.6597 27.8705 19.6697 27.8631C19.7106 27.8891 19.7626 27.9455 19.7626 28.0373C19.7626 28.1292 19.7106 28.1855 19.6697 28.2116Z" fill="#FE4755" stroke="black" stroke-width="0.6"/>
<rect x="13.5127" y="20.2515" width="0.383492" height="0.866311" transform="rotate(-38.6813 13.5127 20.2515)" fill="#FFE3AC"/>
<rect x="12.2856" y="22.6312" width="0.383492" height="0.866311" transform="rotate(-38.6813 12.2856 22.6312)" fill="#FFE3AC"/>
<rect x="15.0354" y="20.6217" width="0.383492" height="0.866311" transform="rotate(5.69987 15.0354 20.6217)" fill="#FFF2C4"/>
<rect x="13.8083" y="23.0014" width="0.383492" height="0.866311" transform="rotate(5.69987 13.8083 23.0014)" fill="#FFF2C4"/>
<path d="M15.9971 21.0971H16.3806V21.9634H15.9971V21.0971Z" fill="#FFF59E"/>
<rect x="16.5486" y="19.6796" width="0.383492" height="0.866311" transform="rotate(-21.581 16.5486 19.6796)" fill="#FFE1A7"/>
<rect x="15.3218" y="22.0593" width="0.383492" height="0.866311" transform="rotate(-21.581 15.3218 22.0593)" fill="#FFE1A7"/>
<rect x="18.1145" y="20.8901" width="0.383492" height="0.866311" transform="rotate(17.4774 18.1145 20.8901)" fill="#FFF59E"/>
<rect x="13.9009" y="21.7165" width="0.383492" height="0.866311" transform="rotate(17.4774 13.9009 21.7165)" fill="#FFF59E"/>
<path d="M8.54245 17.2738L8.29432 18.1977L2.24259 10.1502L5.34934 7.81393L11.3859 15.8413L10.5153 15.7976L10.2538 15.7845L10.2054 16.0418L9.9917 17.1792L8.86546 17.0535L8.6093 17.0249L8.54245 17.2738Z" fill="#E4852B" stroke="black" stroke-width="0.6"/>
<path d="M9.40953 18.1966L8.37062 18.7391L7.83584 20.4095L11.4691 21.5727L12.0038 19.9023L11.505 18.6994L10.2248 19.3328L9.40953 18.1966Z" fill="#E4852B" stroke="black" stroke-width="0.6" stroke-linecap="round"/>
<path d="M5.3027 9.96685L5.56638 10.3168C5.62535 10.3951 5.66211 10.4726 5.67664 10.5493C5.69175 10.6267 5.68556 10.6992 5.65808 10.7666C5.63059 10.834 5.58331 10.893 5.51622 10.9436C5.44838 10.9947 5.37789 11.0244 5.30473 11.0328C5.23232 11.0406 5.16098 11.0266 5.09072 10.9907C5.02102 10.9556 4.95668 10.8989 4.89771 10.8206L4.78735 10.6741L4.54471 10.8569L4.39139 10.6534L5.3027 9.96685ZM5.071 10.676C5.11424 10.7334 5.16108 10.7677 5.2115 10.7788C5.26249 10.7906 5.31295 10.7777 5.3629 10.7401C5.41284 10.7025 5.43879 10.6578 5.44073 10.6061C5.44323 10.5551 5.42286 10.5009 5.37962 10.4435L5.276 10.306L4.96738 10.5385L5.071 10.676ZM5.33871 11.9574C5.26851 11.8642 5.22592 11.7642 5.21094 11.6575C5.19578 11.5521 5.20835 11.4509 5.24864 11.3539C5.28969 11.2564 5.35568 11.1733 5.44663 11.1048C5.53757 11.0363 5.6352 10.9961 5.73952 10.9841C5.84459 10.9715 5.94571 10.9871 6.04287 11.0307C6.14134 11.0746 6.22567 11.1431 6.29587 11.2363C6.36607 11.3294 6.40838 11.429 6.4228 11.535C6.43852 11.6412 6.42586 11.7431 6.38482 11.8406C6.34452 11.9376 6.2789 12.0203 6.18796 12.0888C6.09701 12.1573 5.99901 12.1979 5.89394 12.2104C5.78962 12.2224 5.6886 12.2062 5.59087 12.1618C5.49297 12.1187 5.40891 12.0506 5.33871 11.9574ZM5.52209 11.8192C5.56309 11.8736 5.61283 11.9133 5.67131 11.9382C5.72979 11.9631 5.79066 11.971 5.85392 11.9619C5.91849 11.9529 5.97873 11.9274 6.03464 11.8853C6.09129 11.8426 6.13243 11.7918 6.15807 11.7327C6.18426 11.6744 6.19346 11.6137 6.18567 11.5507C6.17788 11.4876 6.15349 11.4288 6.11249 11.3744C6.07149 11.32 6.02175 11.2803 5.96327 11.2555C5.90479 11.2306 5.84364 11.2223 5.77982 11.2307C5.71656 11.2398 5.6566 11.2656 5.59995 11.3083C5.54404 11.3504 5.50261 11.4009 5.47567 11.4598C5.45004 11.5188 5.44112 11.5799 5.44891 11.643C5.4567 11.7061 5.48109 11.7648 5.52209 11.8192ZM7.61749 13.0394L6.50821 13.4632L6.3532 13.2574L6.8016 12.6637L6.10722 12.9309L5.95221 12.7252L6.66556 11.7758L6.82983 11.9939L6.35178 12.5994L7.06571 12.307L7.22493 12.5183L6.74827 13.121L7.4608 12.8314L7.61749 13.0394ZM7.69011 13.1358L8.20062 13.8134L8.02395 13.9465L7.66676 13.4724L7.48114 13.6122L7.80885 14.0472L7.63217 14.1803L7.30447 13.7453L7.10879 13.8927L7.47356 14.3769L7.29689 14.51L6.7788 13.8223L7.69011 13.1358ZM7.80849 15.1891L7.96276 14.7959L7.84061 14.6338L7.55324 14.8503L7.39992 14.6468L8.31123 13.9602L8.58755 14.327C8.64483 14.403 8.68121 14.4784 8.69668 14.5532C8.71289 14.6275 8.70847 14.6969 8.68341 14.7613C8.65835 14.8258 8.61451 14.8816 8.55189 14.9288C8.48927 14.9759 8.42353 15.0027 8.35466 15.009C8.28711 15.0155 8.22043 15.0014 8.15465 14.9669L7.98624 15.425L7.80849 15.1891ZM8.02064 14.4981L8.13689 14.6524C8.17789 14.7069 8.2208 14.7406 8.26563 14.7535C8.31177 14.7667 8.35608 14.7573 8.39857 14.7252C8.44106 14.6932 8.46198 14.6535 8.46131 14.6061C8.46196 14.5589 8.44178 14.5081 8.40078 14.4536L8.28453 14.2993L8.02064 14.4981Z" fill="#090909"/>
</g>
<defs>
<clipPath id="clip0_67_3363">
<rect width="36" height="34" fill="white" transform="translate(0.916748)"/>
</clipPath>
</defs>
</svg>
