<svg width="137" height="136" viewBox="0 0 137 136" fill="none" xmlns="http://www.w3.org/2000/svg">
<mask id="mask0_380_2762" style="mask-type:alpha" maskUnits="userSpaceOnUse" x="0" y="-1" width="137" height="137">
<path d="M68.2098 134.8C105.163 134.8 135.12 104.843 135.12 67.89C135.12 30.9366 105.163 0.97998 68.2098 0.97998C31.2564 0.97998 1.2998 30.9366 1.2998 67.89C1.2998 104.843 31.2564 134.8 68.2098 134.8Z" fill="white" stroke="white" stroke-width="2" stroke-linecap="round" stroke-linejoin="round"/>
</mask>
<g mask="url(#mask0_380_2762)">
<path d="M125.15 91.39L124.53 92.63C122.97 95.75 121.41 98.87 119.85 101.99" stroke="#FF3239" stroke-width="3" stroke-linecap="round" stroke-linejoin="round"/>
<path d="M125.37 90.9401L125.15 91.3801" stroke="#FF3239" stroke-width="3" stroke-linecap="round" stroke-linejoin="round"/>
<path d="M128.93 83.8101L128.25 85.1801" stroke="#FF3239" stroke-width="3" stroke-linecap="round" stroke-linejoin="round"/>
<path d="M100.04 144.16C100.04 140.29 99.3498 135.75 101.13 132.21C102.6 129.3 105.57 128.18 108.14 126.43C112.51 123.44 116.9 120.48 121.25 117.47C124.51 115.22 127.25 113.33 129.02 109.62L129.09 109.46C131.05 105.07 133.01 100.68 134.97 96.3L138.67 88.01C139.92 85.21 141.23 82.85 139.73 79.82C138.5 77.33 136.03 76.74 133.47 77.47C130.98 78.19 129.97 81.73 128.93 83.82" stroke="#FF3239" stroke-width="3" stroke-linecap="round" stroke-linejoin="round"/>
<path d="M80.1 144.16C80.1 136.51 79.02 128.04 82.3 120.95C85.22 114.64 90.55 111.38 96.13 107.77C98.02 106.55 99.91 105.33 101.79 104.09C105.81 101.45 112.07 96.32 116.96 99.65C116.96 99.65 123.45 103.36 116.96 107.76L103.05 117.73" stroke="#FF3239" stroke-width="3" stroke-linecap="round" stroke-linejoin="round"/>
<path d="M130.54 80.36C129.11 79.94 127.56 79.87 126.1 80.13C124.77 80.37 123.85 80.65 122.76 81.48C121.43 82.49 119.81 85.03 119.02 86.53C118.17 88.15 117.4 89.81 116.59 91.45C115.42 93.82 114.24 96.19 113.07 98.56" stroke="#FF3239" stroke-width="3" stroke-miterlimit="10"/>
<path d="M118.67 86.95C118.67 86.95 115.28 84.99 111.98 87.22C109.2 89.09 104.74 100.4 103.67 102.81" stroke="#FF3239" stroke-width="3" stroke-miterlimit="10"/>
<path d="M84.2596 26.94C84.2596 26.94 64.8596 22.74 54.7896 26.89C54.7896 26.89 30.8896 27.86 28.2896 46.04C28.2896 46.04 35.0695 58.08 39.3195 58.82C43.5695 59.56 42.3796 63.22 42.3796 63.22L46.5796 71.57L48.2495 90.21L42.3796 88.03L39.5596 88.91L39.9195 102L41.7995 104.25L61.7596 105.75L64.8795 102H72.0195L75.6896 104.49L93.4096 104.21L97.6295 93.93L100.18 81.8V70.77H96.0695L92.7996 76.34L90.3195 78.62V70.77L94.5595 60.76L109.29 45.76C109.29 45.76 104.2 29.48 84.2795 26.95L84.2596 26.94Z" fill="white"/>
<path d="M46.5796 71.5601C46.5796 71.5601 46.8096 104.48 55.3896 104.48C56.7196 104.48 60.5996 104.48 61.2096 104.48C64.2696 104.51 64.8796 102.15 64.8796 99.0401V80.1201" stroke="#FF3234" stroke-width="3" stroke-linecap="round" stroke-linejoin="round"/>
<path d="M47.4198 92.04C47.4198 92.04 43.6498 88.1 43.6398 88.1C42.2998 86.7 40.1698 87.01 39.5598 88.9C39.1898 90.04 39.3598 95.56 39.3498 97C39.3298 99.56 39.2598 102.67 41.7998 104.24C42.6698 104.78 44.9898 104.63 46.4998 104.64C49.3298 104.64 52.1598 104.64 54.9898 104.64" stroke="#FF3234" stroke-width="3" stroke-linecap="round" stroke-linejoin="round"/>
<path d="M82.9298 104.15C82.4798 104.37 81.9998 104.48 81.4998 104.48C80.1698 104.48 76.2898 104.48 75.6798 104.48C72.6198 104.51 72.0098 102.15 72.0098 99.04V80.12" stroke="#FF3234" stroke-width="3" stroke-linecap="round" stroke-linejoin="round"/>
<path d="M90.2997 71.5601C90.2997 71.5601 90.2197 82.7001 88.4697 92.0201" stroke="#FF3234" stroke-width="3" stroke-linecap="round" stroke-linejoin="round"/>
<path d="M89.8899 93.5401C89.8899 93.5401 84.8099 88.1001 84.7999 88.0901C83.4599 86.6901 81.3299 87.0001 80.7199 88.8901C80.3499 90.0301 80.5199 95.5501 80.5099 96.9901C80.4899 99.5501 80.4199 102.66 82.9599 104.23C83.8299 104.77 86.1499 104.62 87.6599 104.63C88.6199 104.63 89.5899 104.63 90.5499 104.63C91.0099 104.63 91.4699 104.64 91.9299 104.63C93.8399 104.57 94.8699 102.9 95.5799 101.35C97.5599 96.9901 97.9099 91.3301 97.4399 86.5301C97.0199 82.2201 94.9699 76.2601 90.7299 75.4401" stroke="#FF3234" stroke-width="3" stroke-linecap="round" stroke-linejoin="round"/>
<path d="M93.3999 75.9201C93.3999 75.9201 94.6499 75.2201 95.3199 72.7101C95.9999 70.1701 99.6399 70.1001 100.39 72.6201C101.36 75.9201 101.31 80.4701 98.3299 86.4501" stroke="#FF3234" stroke-width="3" stroke-linecap="round" stroke-linejoin="round"/>
<path d="M64.8696 101.99H72.0096" stroke="#FF3234" stroke-width="3" stroke-linecap="round" stroke-linejoin="round"/>
<path d="M68.4599 25.01C68.4599 25.01 58.9299 24.45 54.7899 26.89C54.4099 27.12 53.1099 26.9 52.6599 26.94C50.7399 27.09 48.8299 27.48 46.9799 28.03C40.4999 29.97 34.8699 34.05 30.4799 39.15C27.9199 42.13 26.8999 45.3 29.7699 48.53L33.1599 52.64C35.6799 55.69 41.1799 63.07 45.5799 58.12C45.5799 58.12 50.6899 53.61 53.0299 46.08" stroke="#FF3234" stroke-width="3" stroke-linecap="round" stroke-linejoin="round"/>
<path d="M42.3696 60.75C42.3696 60.75 43.3096 73.35 57.0396 75.23" stroke="#FF3234" stroke-width="3" stroke-linecap="round" stroke-linejoin="round"/>
<path d="M57.3596 56.64C58.8729 56.64 60.0996 55.4133 60.0996 53.9C60.0996 52.3868 58.8729 51.16 57.3596 51.16C55.8464 51.16 54.6196 52.3868 54.6196 53.9C54.6196 55.4133 55.8464 56.64 57.3596 56.64Z" fill="#FF3234"/>
<path d="M67.4496 60.88L65.3496 58.78C64.5596 57.99 65.1196 56.64 66.2396 56.64H70.6596C71.7796 56.64 72.3396 57.99 71.5496 58.78L69.4496 60.88C68.8996 61.43 67.9996 61.43 67.4496 60.88Z" fill="#FF3234" stroke="#FF3234" stroke-width="2" stroke-linecap="round" stroke-linejoin="round"/>
<path d="M61.75 63.57C61.75 63.57 64.12 67.95 68.06 64.98V61.65" stroke="#FF3234" stroke-width="3" stroke-linecap="round" stroke-linejoin="round"/>
<path d="M68.46 25.01C68.46 25.01 77.99 24.45 82.13 26.89C82.51 27.12 83.81 26.9 84.26 26.94C86.18 27.09 88.09 27.48 89.94 28.03C96.42 29.97 102.05 34.05 106.44 39.15C109 42.13 110.02 45.3 107.15 48.53C106.02 49.9 104.89 51.27 103.76 52.64C101.24 55.69 95.74 63.07 91.34 58.12C91.34 58.12 86.23 53.61 83.89 46.08" stroke="#FF3234" stroke-width="3" stroke-linecap="round" stroke-linejoin="round"/>
<path d="M94.5396 60.75C94.5396 60.75 93.5996 73.35 79.8696 75.23" stroke="#FF3234" stroke-width="3" stroke-linecap="round" stroke-linejoin="round"/>
<path d="M79.5496 56.64C81.0628 56.64 82.2896 55.4133 82.2896 53.9C82.2896 52.3868 81.0628 51.16 79.5496 51.16C78.0363 51.16 76.8096 52.3868 76.8096 53.9C76.8096 55.4133 78.0363 56.64 79.5496 56.64Z" fill="#FF3234"/>
<path d="M75.1596 63.57C75.1596 63.57 72.7896 67.95 68.8496 64.98V61.65" stroke="#FF3234" stroke-width="3" stroke-linecap="round" stroke-linejoin="round"/>
<path d="M24.1196 66.63V74.05" stroke="#FF3239" stroke-width="3" stroke-linecap="round" stroke-linejoin="round"/>
<path d="M27.8297 70.34H20.4097" stroke="#FF3239" stroke-width="3" stroke-linecap="round" stroke-linejoin="round"/>
<path d="M16.1497 62.37C17.5249 62.37 18.6397 61.2552 18.6397 59.88C18.6397 58.5048 17.5249 57.39 16.1497 57.39C14.7745 57.39 13.6597 58.5048 13.6597 59.88C13.6597 61.2552 14.7745 62.37 16.1497 62.37Z" stroke="#FF3239" stroke-width="2" stroke-linecap="round" stroke-linejoin="round"/>
<path d="M10.43 69.31C10.9547 69.31 11.38 68.8847 11.38 68.36C11.38 67.8354 10.9547 67.41 10.43 67.41C9.90531 67.41 9.47998 67.8354 9.47998 68.36C9.47998 68.8847 9.90531 69.31 10.43 69.31Z" stroke="#FF3239" stroke-width="3" stroke-linecap="round" stroke-linejoin="round"/>
<path d="M112.592 73.2361L116.179 70.1223L113.065 66.5353L109.478 69.649L112.592 73.2361Z" stroke="#FF3239" stroke-width="2" stroke-linecap="round" stroke-linejoin="round"/>
<path d="M126.14 65.72L123.01 68.85" stroke="#FF3239" stroke-width="3" stroke-linecap="round" stroke-linejoin="round"/>
<path d="M126.14 68.85L123.01 65.72" stroke="#FF3239" stroke-width="3" stroke-linecap="round" stroke-linejoin="round"/>
<path d="M115.78 59.32C116.045 59.32 116.26 59.1051 116.26 58.84C116.26 58.5749 116.045 58.36 115.78 58.36C115.515 58.36 115.3 58.5749 115.3 58.84C115.3 59.1051 115.515 59.32 115.78 59.32Z" stroke="#FF3239" stroke-width="3" stroke-linecap="round" stroke-linejoin="round"/>
<path d="M37.2898 144.16C37.2898 140.29 37.9798 135.75 36.1998 132.21C34.7298 129.3 31.7598 128.18 29.1898 126.43C24.8198 123.44 20.4298 120.48 16.0798 117.47C12.8198 115.22 10.0798 113.33 8.30979 109.62L8.23979 109.46C6.27979 105.07 4.31979 100.68 2.35979 96.3C1.12979 93.54 -0.110211 90.77 -1.34021 88.01C-2.57021 85.25 -3.90021 82.85 -2.40021 79.82C-1.17021 77.33 1.29979 76.74 3.85979 77.47C6.34979 78.19 7.35979 81.73 8.39979 83.82C9.86979 86.76 11.3398 89.7 12.8098 92.63C14.3698 95.75 15.9298 98.87 17.4898 101.99" stroke="#FF3239" stroke-width="3" stroke-linecap="round" stroke-linejoin="round"/>
<path d="M57.2298 144.16C57.2298 136.51 58.3098 128.04 55.0298 120.95C52.1098 114.64 46.7798 111.38 41.1998 107.77C39.3098 106.55 37.4198 105.33 35.5398 104.09C31.5198 101.45 25.2598 96.32 20.3698 99.65C20.3698 99.65 13.8798 103.36 20.3698 107.76L34.2798 117.73" stroke="#FF3239" stroke-width="3" stroke-linecap="round" stroke-linejoin="round"/>
<path d="M6.78955 80.36C8.21955 79.94 9.76955 79.87 11.2296 80.13C12.5596 80.37 13.4796 80.65 14.5696 81.48C15.8996 82.49 17.5196 85.03 18.3096 86.53C19.1596 88.15 19.9296 89.81 20.7396 91.45C21.9096 93.82 23.0896 96.19 24.2596 98.56" stroke="#FF3239" stroke-width="3" stroke-miterlimit="10"/>
<path d="M18.6499 86.95C18.6499 86.95 22.0399 84.99 25.3399 87.22C28.1199 89.09 32.5799 100.4 33.6499 102.81" stroke="#FF3239" stroke-width="3" stroke-miterlimit="10"/>
</g>
</svg>
